HIERARCHY
ROOT Hips
{
	OFFSET 0.000000 83.214638 0.000000
	CHANNELS 6 Xposition Yposition Zposition Xrotation Yrotation Zrotation
	JOINT Pelvis
	{
		OFFSET 0.000000 0.000000 0.000000
		CHANNELS 3 Xrotation Yrotation Zrotation
		JOINT LeftUpLeg
		{
			OFFSET 8.479700 -4.795502 -0.379100
			CHANNELS 3 Xrotation Yrotation Zrotation
			JOINT LeftLeg
			{
				OFFSET 0.024144 -32.555107 0.112900
				CHANNELS 3 Xrotation Yrotation Zrotation
				JOINT LeftFoot
				{
					OFFSET -0.024144 -32.638630 -3.012600
					CHANNELS 3 Xrotation Yrotation Zrotation
					JOINT LeftToeBase
					{
						OFFSET 0.970200 -13.225400 11.864200
						CHANNELS 3 Xrotation Yrotation Zrotation
						End Site
						{
							OFFSET 0.000000 12.319262 0.000000
						}
					}
					JOINT LFootTongue
					{
						OFFSET 1.142400 -1.059800 6.665200
						CHANNELS 3 Xrotation Yrotation Zrotation
						End Site
						{
							OFFSET 0.000000 12.319262 0.000000
						}
					}
				}
				JOINT LeftPantLeg
				{
					OFFSET 0.918482 -16.533964 -2.284700
					CHANNELS 3 Xrotation Yrotation Zrotation
					End Site
					{
						OFFSET 0.350399 24.744368 0.000000
					}
				}
			}
		}
		JOINT RightUpLeg
		{
			OFFSET -8.479700 -4.795502 -0.379100
			CHANNELS 3 Xrotation Yrotation Zrotation
			JOINT RightLeg
			{
				OFFSET -0.023144 -32.555092 0.112900
				CHANNELS 3 Xrotation Yrotation Zrotation
				JOINT RightFoot
				{
					OFFSET 0.023144 -32.638641 -3.012700
					CHANNELS 3 Xrotation Yrotation Zrotation
					JOINT RightToeBase
					{
						OFFSET -0.970200 -13.225400 11.864200
						CHANNELS 3 Xrotation Yrotation Zrotation
						End Site
						{
							OFFSET 0.000000 12.319244 0.000000
						}
					}
					JOINT RFootTongue
					{
						OFFSET -1.142200 -1.059800 6.665200
						CHANNELS 3 Xrotation Yrotation Zrotation
						End Site
						{
							OFFSET 0.000000 12.319243 0.000000
						}
					}
				}
				JOINT RightPantLeg
				{
					OFFSET -0.919482 -16.533978 -2.284800
					CHANNELS 3 Xrotation Yrotation Zrotation
					End Site
					{
						OFFSET -0.350400 24.744419 0.000000
					}
				}
			}
		}
	}
	JOINT Spine
	{
		OFFSET 0.000000 7.722000 1.166200
		CHANNELS 3 Xrotation Yrotation Zrotation
		JOINT Spine1
		{
			OFFSET 0.000000 12.024101 0.248800
			CHANNELS 3 Xrotation Yrotation Zrotation
			JOINT Spine2
			{
				OFFSET 0.000000 11.502998 -0.491200
				CHANNELS 3 Xrotation Yrotation Zrotation
				JOINT Neck
				{
					OFFSET 0.000000 18.430702 -3.123100
					CHANNELS 3 Xrotation Yrotation Zrotation
					JOINT Head
					{
						OFFSET 0.000000 9.051102 1.034000
						CHANNELS 3 Xrotation Yrotation Zrotation
						JOINT HairB
						{
							OFFSET 0.208400 24.786102 24.822300
							CHANNELS 3 Xrotation Yrotation Zrotation
							End Site
							{
								OFFSET 0.000000 32.263779 0.000000
							}
						}
						JOINT HairA
						{
							OFFSET -7.081100 24.428299 23.196600
							CHANNELS 3 Xrotation Yrotation Zrotation
							End Site
							{
								OFFSET 0.000000 32.263779 0.000000
							}
						}
						JOINT Hat
						{
							OFFSET 16.728800 15.048294 -15.439601
							CHANNELS 3 Xrotation Yrotation Zrotation
							End Site
							{
								OFFSET 0.000000 32.263779 0.000000
							}
						}
					}
				}
				JOINT LeftShoulder
				{
					OFFSET 6.197800 13.665199 -4.064700
					CHANNELS 3 Xrotation Yrotation Zrotation
					JOINT LeftArm
					{
						OFFSET 7.778100 -0.187103 -1.709300
						CHANNELS 3 Xrotation Yrotation Zrotation
						JOINT LeftForeArm
						{
							OFFSET 22.049376 0.000000 0.000000
							CHANNELS 3 Xrotation Yrotation Zrotation
							JOINT LeftHand
							{
								OFFSET 23.009392 0.000000 0.000000
								CHANNELS 3 Xrotation Yrotation Zrotation
								JOINT LeftHandThumb1
								{
									OFFSET 3.507191 -2.063065 3.133727
									CHANNELS 3 Xrotation Yrotation Zrotation
									JOINT LeftHandThumb2
									{
										OFFSET 3.101337 -1.790558 1.790558
										CHANNELS 3 Xrotation Yrotation Zrotation
										JOINT LeftHandThumb3
										{
											OFFSET 3.058640 -1.765907 1.765906
											CHANNELS 3 Xrotation Yrotation Zrotation
											End Site
											{
												OFFSET -0.415260 3.926476 -0.049563
											}
										}
									}
								}
								JOINT LeftHandIndex1
								{
									OFFSET 11.334419 -0.901459 3.706815
									CHANNELS 3 Xrotation Yrotation Zrotation
									JOINT LeftHandIndex2
									{
										OFFSET 3.283112 0.000000 0.000000
										CHANNELS 3 Xrotation Yrotation Zrotation
										JOINT LeftHandIndex3
										{
											OFFSET 3.323853 0.000000 0.000000
											CHANNELS 3 Xrotation Yrotation Zrotation
											End Site
											{
												OFFSET -1.135597 3.097809 0.402452
											}
										}
									}
								}
								JOINT LeftHandMiddle1
								{
									OFFSET 11.335861 0.000000 0.000000
									CHANNELS 3 Xrotation Yrotation Zrotation
									JOINT LeftHandMiddle2
									{
										OFFSET 3.410492 0.000000 0.000000
										CHANNELS 3 Xrotation Yrotation Zrotation
										JOINT LeftHandMiddle3
										{
											OFFSET 3.312172 0.000000 0.000000
											CHANNELS 3 Xrotation Yrotation Zrotation
											End Site
											{
												OFFSET -1.150200 3.080154 0.400270
											}
										}
									}
								}
								JOINT LeftHandRing1
								{
									OFFSET 11.514786 -0.013176 -3.003090
									CHANNELS 3 Xrotation Yrotation Zrotation
									JOINT LeftHandRing2
									{
										OFFSET 3.053307 0.000000 0.000000
										CHANNELS 3 Xrotation Yrotation Zrotation
										JOINT LeftHandRing3
										{
											OFFSET 3.295807 0.000000 0.000000
											CHANNELS 3 Xrotation Yrotation Zrotation
											End Site
											{
												OFFSET -1.281006 3.013344 0.375733
											}
										}
									}
								}
								JOINT LeftHandPinky1
								{
									OFFSET 10.518692 -0.960396 -5.730441
									CHANNELS 3 Xrotation Yrotation Zrotation
									JOINT LeftHandPinky2
									{
										OFFSET 2.861649 0.000000 0.000000
										CHANNELS 3 Xrotation Yrotation Zrotation
										JOINT LeftHandPinky3
										{
											OFFSET 2.863380 0.000000 0.000000
											CHANNELS 3 Xrotation Yrotation Zrotation
											End Site
											{
												OFFSET -0.843597 2.711159 0.369971
											}
										}
									}
								}
							}
							JOINT LSleeve
							{
								OFFSET 6.676277 -0.344902 -1.011730
								CHANNELS 3 Xrotation Yrotation Zrotation
								End Site
								{
									OFFSET 0.000000 14.885353 0.000000
								}
							}
						}
					}
				}
				JOINT RightShoulder
				{
					OFFSET -6.197800 13.665199 -4.064700
					CHANNELS 3 Xrotation Yrotation Zrotation
					JOINT RightArm
					{
						OFFSET -7.778100 -0.187103 -1.709300
						CHANNELS 3 Xrotation Yrotation Zrotation
						JOINT RightForeArm
						{
							OFFSET -22.049376 0.000000 0.000000
							CHANNELS 3 Xrotation Yrotation Zrotation
							JOINT RightHand
							{
								OFFSET -23.009392 0.000000 0.000000
								CHANNELS 3 Xrotation Yrotation Zrotation
								JOINT RightHandThumb1
								{
									OFFSET -3.507191 -2.063065 3.133727
									CHANNELS 3 Xrotation Yrotation Zrotation
									JOINT RightHandThumb2
									{
										OFFSET -3.101337 -1.790558 1.790558
										CHANNELS 3 Xrotation Yrotation Zrotation
										JOINT RightHandThumb3
										{
											OFFSET -3.058640 -1.765907 1.765906
											CHANNELS 3 Xrotation Yrotation Zrotation
											End Site
											{
												OFFSET 0.415260 3.926476 -0.049563
											}
										}
									}
								}
								JOINT RightHandIndex1
								{
									OFFSET -11.334419 -0.901459 3.706815
									CHANNELS 3 Xrotation Yrotation Zrotation
									JOINT RightHandIndex2
									{
										OFFSET -3.283112 0.000000 0.000000
										CHANNELS 3 Xrotation Yrotation Zrotation
										JOINT RightHandIndex3
										{
											OFFSET -3.323853 0.000000 0.000000
											CHANNELS 3 Xrotation Yrotation Zrotation
											End Site
											{
												OFFSET 1.135597 3.097809 0.402452
											}
										}
									}
								}
								JOINT RightHandMiddle1
								{
									OFFSET -11.335861 0.000000 0.000000
									CHANNELS 3 Xrotation Yrotation Zrotation
									JOINT RightHandMiddle2
									{
										OFFSET -3.410492 0.000000 0.000000
										CHANNELS 3 Xrotation Yrotation Zrotation
										JOINT RightHandMiddle3
										{
											OFFSET -3.312172 0.000000 0.000000
											CHANNELS 3 Xrotation Yrotation Zrotation
											End Site
											{
												OFFSET 1.150200 3.080154 0.400270
											}
										}
									}
								}
								JOINT RightHandRing1
								{
									OFFSET -11.514786 -0.013176 -3.003090
									CHANNELS 3 Xrotation Yrotation Zrotation
									JOINT RightHandRing2
									{
										OFFSET -3.053307 0.000000 0.000000
										CHANNELS 3 Xrotation Yrotation Zrotation
										JOINT RightHandRing3
										{
											OFFSET -3.295807 0.000000 0.000000
											CHANNELS 3 Xrotation Yrotation Zrotation
											End Site
											{
												OFFSET 1.281006 3.013344 0.375733
											}
										}
									}
								}
								JOINT RightHandPinky1
								{
									OFFSET -10.518692 -0.960396 -5.730441
									CHANNELS 3 Xrotation Yrotation Zrotation
									JOINT RightHandPinky2
									{
										OFFSET -2.861649 0.000000 0.000000
										CHANNELS 3 Xrotation Yrotation Zrotation
										JOINT RightHandPinky3
										{
											OFFSET -2.863380 0.000000 0.000000
											CHANNELS 3 Xrotation Yrotation Zrotation
											End Site
											{
												OFFSET 0.843597 2.711159 0.369971
											}
										}
									}
								}
							}
							JOINT RSleeve
							{
								OFFSET -6.676277 -0.344902 -1.011730
								CHANNELS 3 Xrotation Yrotation Zrotation
								End Site
								{
									OFFSET 0.000000 14.885353 0.000000
								}
							}
						}
					}
				}
				JOINT Backpack
				{
					OFFSET 0.000000 -2.471497 36.677502
					CHANNELS 3 Xrotation Yrotation Zrotation
					End Site
					{
						OFFSET 0.000000 20.427315 0.000000
					}
				}
				JOINT Hood
				{
					OFFSET 0.000000 18.754097 -10.431000
					CHANNELS 3 Xrotation Yrotation Zrotation
					JOINT Hood1
					{
						OFFSET 0.000000 -5.011002 -7.685901
						CHANNELS 3 Xrotation Yrotation Zrotation
						End Site
						{
							OFFSET 0.000000 9.175140 0.000000
						}
					}
				}
				JOINT LHoodieString
				{
					OFFSET 5.250500 16.397697 3.089900
					CHANNELS 3 Xrotation Yrotation Zrotation
					JOINT LHoodieString1
					{
						OFFSET 0.257700 -6.364304 3.694600
						CHANNELS 3 Xrotation Yrotation Zrotation
						JOINT LHoodieString2
						{
							OFFSET 0.000000 -9.643799 2.679100
							CHANNELS 3 Xrotation Yrotation Zrotation
							End Site
							{
								OFFSET 0.000000 10.009018 0.000000
							}
						}
					}
				}
				JOINT RHoodieString
				{
					OFFSET -5.250500 16.397697 3.089900
					CHANNELS 3 Xrotation Yrotation Zrotation
					JOINT RHoodieString1
					{
						OFFSET -0.257700 -6.364304 3.694600
						CHANNELS 3 Xrotation Yrotation Zrotation
						JOINT RHoodieString2
						{
							OFFSET 0.000000 -9.643799 2.679100
							CHANNELS 3 Xrotation Yrotation Zrotation
							End Site
							{
								OFFSET 0.000000 10.009018 0.000000
							}
						}
					}
				}
			}
			JOINT LBackpack_Strap
			{
				OFFSET 15.223200 -7.719803 -6.610900
				CHANNELS 3 Xrotation Yrotation Zrotation
				End Site
				{
					OFFSET 0.000000 16.040596 0.000000
				}
			}
			JOINT RBackpack_Strap
			{
				OFFSET -15.223000 -7.719803 -6.610900
				CHANNELS 3 Xrotation Yrotation Zrotation
				End Site
				{
					OFFSET 0.000000 16.040596 0.000000
				}
			}
		}
	}
	JOINT BoyFacialAnim_Joint
	{
		OFFSET 1.000000 -82.208099 -1.550900
		CHANNELS 3 Xrotation Yrotation Zrotation
		End Site
		{
			OFFSET 0.000000 30.012791 0.000000
		}
	}
}
MOTION
Frames: 5
Frame Time: 0.033333
-2.762147 69.713165 -2.410446 9.384765 2.400086 -9.251847 -0.000001 0.000000 -0.000001 -60.210003 -7.444598 19.301638 71.114611 -8.841650 -1.109551 -21.922885 -17.881135 -5.380011 -0.000000 -0.000001 -0.000000 -0.000000 -0.000001 -0.000000 0.000001 -0.000000 0.000000 -56.016430 -4.450430 -19.544033 75.446447 8.893631 1.021535 -11.239912 13.768729 13.889635 0.000001 0.000000 -0.000000 0.000001 0.000000 -0.000000 -0.000001 -0.000001 -0.000001 3.075958 0.469053 -1.399338 6.166105 1.145847 -2.310327 6.163526 1.158385 -2.311470 3.635043 -2.669654 1.011389 -11.036871 -16.396733 8.869386 0.000001 -0.000001 -0.000001 0.000001 -0.000001 -0.000001 0.000001 -0.000001 -0.000001 0.660570 -4.168313 -0.757404 -38.168398 -32.017840 -55.193410 0.000246 -97.086167 0.000242 9.214361 -26.589230 1.198644 8.741085 6.531292 -0.808670 77.838496 -5.633032 -34.174951 -0.000000 0.000003 -0.000002 7.444040 6.858264 -94.702881 7.770023 6.823836 -97.439042 -0.000000 -0.000001 -0.000000 7.442098 6.858420 -94.686687 7.771941 6.823572 -97.455236 -0.000000 -0.000005 0.000001 7.444020 6.858240 -94.702881 7.770010 6.823838 -97.439028 0.000000 -0.000002 -0.000001 11.512503 6.526951 -94.666832 7.766467 2.737784 -97.396394 -0.000000 0.000000 -0.000000 -0.000001 -0.000000 -0.000002 1.170280 4.534242 10.500233 -21.366372 19.422387 34.744209 -0.000005 110.839859 0.000004 -24.861118 16.665448 -13.159017 -9.850933 -31.347447 7.079247 55.282124 -76.465709 41.143031 0.000006 0.000001 -0.000005 8.306317 -6.814880 101.298208 8.805091 -6.696708 105.536326 0.000001 0.000001 0.000000 8.306300 -6.814872 101.298208 8.805071 -6.696694 105.536326 0.000001 0.000003 0.000002 8.306294 -6.814859 101.298201 8.805075 -6.696708 105.536340 -0.000001 0.000000 -0.000003 8.306284 -6.814844 101.298194 8.805093 -6.696711 105.536340 -0.000002 0.000003 -0.000003 0.000002 0.000001 -0.000000 -0.000001 -0.000000 -0.000000 -0.000001 -0.000000 -0.000000 -0.000001 -0.000000 -0.000000 -0.000001 -0.000000 -0.000000 -0.000001 -0.000000 0.000001 -0.000001 0.000000 -0.000001 -0.000001 -0.000000 -0.000000 -0.000001 -0.000000 0.000001 -0.000001 0.000000 -0.000001 -0.000000 -0.000000 -0.000000 -0.000000 -0.000000 -0.000000 -0.000001 0.000000 -0.000001 
-3.552117 68.024368 -3.820629 12.474268 5.632646 -7.811383 -0.000000 0.000001 0.000001 -67.260985 -7.435326 16.340855 72.974827 -8.633169 -1.187650 -20.072480 -19.410173 -5.692559 0.000000 -0.000000 -0.000000 0.000000 -0.000000 -0.000000 0.000002 -0.000001 -0.000000 -59.777918 -3.341565 -22.074934 79.947856 8.827821 0.913497 -11.618042 11.621959 11.413090 -0.000000 -0.000000 0.000000 -0.000000 -0.000000 0.000000 0.000002 -0.000001 -0.000000 3.481051 0.837234 -1.483917 6.963499 1.971650 -2.199320 6.962239 1.976583 -2.199893 4.383582 -3.227776 0.731905 -15.880354 -20.433899 8.705355 -0.000001 0.000001 0.000000 -0.000001 0.000001 0.000000 -0.000001 0.000001 0.000000 0.695800 -4.731023 -0.521819 -41.582721 -32.831446 -55.000368 0.000832 -98.422145 0.000839 8.813162 -26.184435 1.265605 8.741084 6.531294 -0.808667 77.838489 -5.633036 -34.174954 0.000002 -0.000002 -0.000001 7.444037 6.858271 -94.702875 7.770022 6.823835 -97.439042 -0.000001 0.000001 0.000000 7.442098 6.858420 -94.686687 7.771941 6.823573 -97.455236 -0.000001 -0.000001 0.000004 7.444018 6.858241 -94.702875 7.770009 6.823835 -97.439028 0.000001 -0.000004 0.000002 11.512508 6.526955 -94.666832 7.766466 2.737785 -97.396401 0.000000 -0.000002 -0.000000 -0.000001 -0.000000 0.000001 1.119742 5.308105 10.287912 -28.145183 16.462445 32.628302 0.000035 111.913619 -0.000043 -26.120196 16.318563 -12.493244 -9.850935 -31.347447 7.079249 55.282124 -76.465709 41.143031 0.000001 0.000001 -0.000003 8.306313 -6.814884 101.298208 8.805083 -6.696702 105.536320 0.000000 -0.000003 0.000005 8.306298 -6.814876 101.298208 8.805072 -6.696693 105.536326 0.000001 0.000000 0.000001 8.306292 -6.814860 101.298201 8.805068 -6.696704 105.536333 -0.000001 -0.000004 0.000007 8.306286 -6.814843 101.298194 8.805089 -6.696707 105.536340 0.000002 -0.000001 -0.000002 0.000002 0.000001 0.000001 0.000001 0.000001 -0.000001 0.000001 0.000001 -0.000001 0.000001 0.000001 -0.000001 0.000001 0.000001 -0.000001 0.000001 0.000001 -0.000001 -0.000001 0.000001 0.000000 0.000001 0.000001 -0.000001 0.000001 0.000001 -0.000001 -0.000001 0.000001 0.000000 -0.000001 0.000000 -0.000000 -0.000001 0.000000 -0.000000 -0.000000 0.000001 0.000001 
-4.294097 66.295998 -5.078239 15.178238 7.933210 -6.417398 -0.000001 0.000001 -0.000000 -73.496066 -7.129480 13.734392 74.826922 -8.449607 -1.229950 -18.661135 -20.173674 -6.195088 -0.000000 0.000001 0.000000 -0.000000 0.000001 0.000000 -0.000003 -0.000000 -0.000000 -62.805645 -2.412152 -24.260789 82.874162 8.860465 0.834222 -14.444411 9.471572 9.872936 0.000001 -0.000000 0.000000 0.000001 -0.000000 0.000000 0.000002 -0.000001 -0.000001 3.827839 1.083215 -1.635536 7.627357 2.552252 -2.232314 7.629702 2.546594 -2.230906 5.169756 -3.512261 1.029672 -20.853877 -22.514457 8.286568 0.000001 0.000000 -0.000001 0.000001 0.000000 -0.000001 0.000001 0.000000 -0.000001 0.707626 -4.905624 -0.420876 -42.470946 -32.964399 -53.682107 0.000726 -99.660875 0.000721 8.479577 -25.924546 1.398132 8.741083 6.531291 -0.808674 77.838496 -5.633033 -34.174951 0.000001 -0.000001 -0.000000 7.444036 6.858265 -94.702881 7.770018 6.823832 -97.439042 -0.000002 0.000003 0.000000 7.442097 6.858420 -94.686687 7.771942 6.823577 -97.455236 0.000000 -0.000001 0.000000 7.444022 6.858241 -94.702881 7.770007 6.823835 -97.439035 0.000002 0.000003 -0.000007 11.512505 6.526952 -94.666832 7.766467 2.737784 -97.396394 0.000001 0.000001 0.000003 0.000002 0.000001 0.000002 1.103147 5.798700 10.187796 -33.653264 15.482282 32.198246 0.000001 112.419436 0.000004 -26.550556 15.662150 -11.544773 -9.850932 -31.347443 7.079247 55.282144 -76.465709 41.143021 0.000001 0.000001 -0.000002 8.306312 -6.814884 101.298208 8.805087 -6.696704 105.536320 -0.000001 0.000001 0.000002 8.306300 -6.814874 101.298208 8.805075 -6.696690 105.536326 0.000003 0.000004 0.000002 8.306291 -6.814860 101.298201 8.805075 -6.696704 105.536333 -0.000000 -0.000001 0.000002 8.306284 -6.814842 101.298194 8.805091 -6.696711 105.536347 -0.000002 -0.000000 -0.000003 0.000001 0.000003 0.000002 -0.000000 0.000002 -0.000000 -0.000000 0.000002 -0.000000 -0.000000 0.000002 -0.000000 -0.000000 0.000002 -0.000000 -0.000000 0.000002 -0.000001 -0.000001 0.000000 -0.000001 -0.000000 0.000002 -0.000000 -0.000000 0.000002 -0.000001 -0.000001 0.000000 -0.000001 0.000004 -0.000000 -0.000000 0.000004 -0.000000 -0.000000 -0.000001 0.000001 -0.000000 
-4.952904 64.516914 -6.213470 17.004724 9.120969 -4.868376 -0.000001 0.000000 -0.000000 -78.523215 -6.775351 11.739814 76.965406 -8.281179 -1.234472 -17.910388 -20.107630 -6.937338 0.000000 -0.000000 -0.000000 0.000000 -0.000000 -0.000000 0.000002 0.000000 0.000000 -65.155845 -1.341348 -26.134602 85.170294 8.990994 0.798822 -19.596448 7.880145 9.371558 -0.000000 -0.000000 0.000000 -0.000000 -0.000000 0.000000 0.000001 -0.000001 -0.000001 4.156085 1.250651 -1.768951 8.254721 2.861466 -2.424919 8.261299 2.845043 -2.420819 5.906147 -3.464083 1.807285 -25.500470 -22.546164 7.868678 -0.000000 0.000000 -0.000000 -0.000000 0.000000 -0.000000 -0.000000 0.000000 -0.000000 0.687540 -4.640598 -0.472957 -40.910559 -32.305801 -51.708627 0.000152 -100.756622 0.000138 9.413068 -24.745167 1.447257 8.741087 6.531299 -0.808668 77.838489 -5.633032 -34.174951 0.000000 -0.000001 0.000000 7.444037 6.858265 -94.702875 7.770021 6.823833 -97.439042 0.000002 0.000002 -0.000002 7.442096 6.858422 -94.686687 7.771938 6.823574 -97.455236 0.000001 -0.000000 0.000002 7.444018 6.858245 -94.702875 7.770013 6.823835 -97.439028 -0.000002 0.000002 -0.000000 11.512503 6.526954 -94.666832 7.766467 2.737783 -97.396387 -0.000004 -0.000000 0.000001 0.000001 -0.000001 0.000000 1.143040 6.072043 10.221372 -37.002635 15.854682 33.685004 0.000035 112.691551 -0.000051 -26.147284 14.886894 -10.576813 -9.850939 -31.347447 7.079240 55.282134 -76.465709 41.143031 -0.000000 0.000000 -0.000001 8.306312 -6.814884 101.298208 8.805086 -6.696707 105.536326 -0.000000 -0.000001 0.000005 8.306301 -6.814876 101.298208 8.805073 -6.696691 105.536326 0.000004 0.000004 0.000002 8.306290 -6.814862 101.298201 8.805068 -6.696703 105.536333 -0.000000 0.000000 0.000002 8.306284 -6.814839 101.298194 8.805098 -6.696714 105.536340 -0.000001 -0.000001 -0.000003 -0.000001 -0.000000 -0.000003 0.000001 0.000001 0.000000 0.000001 0.000001 0.000000 0.000001 0.000001 0.000000 0.000001 0.000001 0.000000 0.000001 0.000001 0.000001 -0.000002 -0.000001 0.000001 0.000001 0.000001 0.000000 0.000001 0.000001 0.000001 -0.000002 -0.000001 0.000001 -0.000004 -0.000000 -0.000000 -0.000004 -0.000000 -0.000000 -0.000001 0.000000 -0.000000 
-5.515912 62.720001 -7.316017 17.604201 9.124088 -2.921998 -0.000001 -0.000001 0.000000 -82.063234 -6.440637 10.471010 79.411338 -8.079445 -1.205061 -17.776672 -19.290445 -7.915115 -0.000000 0.000000 -0.000000 -0.000000 0.000000 -0.000000 -0.000001 -0.000001 0.000000 -66.936448 0.419442 -27.710694 88.039144 9.154452 0.804454 -26.668906 7.143001 9.860339 -0.000001 -0.000000 0.000000 -0.000001 -0.000000 0.000000 -0.000000 -0.000000 -0.000000 4.512981 1.375721 -1.837401 8.952310 2.992039 -2.677107 8.962018 2.967221 -2.670538 6.452126 -3.137265 2.769052 -29.465399 -20.842044 7.402125 0.000000 0.000000 -0.000000 0.000000 0.000000 -0.000000 0.000000 0.000000 -0.000000 0.660543 -4.196424 -0.756623 -37.815943 -30.778526 -50.045390 0.000227 -101.840497 0.000230 12.066360 -21.998847 0.886710 8.741081 6.531295 -0.808671 77.838489 -5.633032 -34.174954 -0.000001 -0.000001 0.000002 7.444034 6.858263 -94.702881 7.770016 6.823832 -97.439048 -0.000002 -0.000002 -0.000000 7.442096 6.858413 -94.686687 7.771940 6.823575 -97.455236 -0.000002 0.000001 0.000000 7.444017 6.858235 -94.702881 7.770006 6.823837 -97.439035 0.000003 -0.000002 0.000005 11.512502 6.526951 -94.666832 7.766471 2.737786 -97.396401 -0.000002 -0.000004 -0.000003 0.000002 -0.000002 0.000001 1.228909 6.173878 10.356841 -38.113593 16.981397 36.434001 -0.000051 113.002693 0.000044 -25.282968 14.143040 -9.940696 -9.850939 -31.347450 7.079247 55.282127 -76.465709 41.143007 0.000002 0.000000 -0.000000 8.306314 -6.814881 101.298208 8.805087 -6.696706 105.536326 -0.000000 0.000001 0.000004 8.306300 -6.814874 101.298208 8.805072 -6.696691 105.536320 0.000004 0.000003 0.000005 8.306293 -6.814855 101.298194 8.805074 -6.696707 105.536333 -0.000003 -0.000000 0.000004 8.306288 -6.814838 101.298187 8.805092 -6.696708 105.536340 0.000002 -0.000000 -0.000002 0.000000 -0.000000 -0.000003 -0.000001 -0.000002 0.000002 -0.000001 -0.000002 0.000002 -0.000001 -0.000002 0.000002 -0.000001 -0.000002 0.000002 -0.000001 -0.000002 0.000002 -0.000004 0.000001 -0.000001 -0.000001 -0.000002 0.000002 -0.000001 -0.000002 0.000002 -0.000004 0.000001 -0.000001 -0.000002 -0.000001 -0.000000 -0.000002 -0.000001 -0.000000 -0.000001 -0.000001 0.000000 
